<?xml version="1.0" encoding="UTF-8" standalone="no"?>
<!-- Generator: Adobe Illustrator 24.0.3, SVG Export Plug-In . SVG Version: 6.00 Build 0)  -->

<svg
   xmlns:dc="http://purl.org/dc/elements/1.1/"
   xmlns:cc="http://creativecommons.org/ns#"
   xmlns:rdf="http://www.w3.org/1999/02/22-rdf-syntax-ns#"
   xmlns:svg="http://www.w3.org/2000/svg"
   xmlns="http://www.w3.org/2000/svg"
   xmlns:sodipodi="http://sodipodi.sourceforge.net/DTD/sodipodi-0.dtd"
   xmlns:inkscape="http://www.inkscape.org/namespaces/inkscape"
   version="1.1"
   id="Layer_1"
   x="0px"
   y="0px"
   viewBox="0 0 241.30001 70.5"
   xml:space="preserve"
   sodipodi:docname="i_logo.svg"
   width="241.3"
   height="70.5"
   inkscape:version="0.92.4 (5da689c313, 2019-01-14)"><metadata
   id="metadata109"><rdf:RDF><cc:Work
       rdf:about=""><dc:format>image/svg+xml</dc:format><dc:type
         rdf:resource="http://purl.org/dc/dcmitype/StillImage" /></cc:Work></rdf:RDF></metadata><defs
   id="defs107" /><sodipodi:namedview
   pagecolor="#ffffff"
   bordercolor="#666666"
   borderopacity="1"
   objecttolerance="10"
   gridtolerance="10"
   guidetolerance="10"
   inkscape:pageopacity="0"
   inkscape:pageshadow="2"
   inkscape:window-width="1920"
   inkscape:window-height="1001"
   id="namedview105"
   showgrid="false"
   inkscape:zoom="3.4955772"
   inkscape:cx="111.5037"
   inkscape:cy="-15.583586"
   inkscape:window-x="-9"
   inkscape:window-y="-9"
   inkscape:window-maximized="1"
   inkscape:current-layer="layer1" />
<style
   type="text/css"
   id="style2">
	.st0{fill:#B29A5C;}
	.st1{fill:#FFFFFF;}
</style>

<g
   inkscape:groupmode="layer"
   id="layer2"
   inkscape:label="Layer 2"
   style="display:inline"
   transform="translate(-0.073981,-0.062679)"><rect
     style="opacity:1;fill:#fffffc;fill-opacity:1;stroke:none;stroke-width:7.55905533;stroke-miterlimit:4;stroke-dasharray:none;stroke-opacity:1"
     id="rect918"
     width="276.92136"
     height="79.529068"
     x="-16.30632"
     y="-3.5936282"
     rx="15.1181"
     ry="10" /></g><g
   inkscape:groupmode="layer"
   id="layer1"
   inkscape:label="Layer 1"
   transform="translate(-0.073981,-0.062679)"><g
     id="g102"
     transform="translate(-16.426019,-16.037321)"><g
       id="g22"><path
         class="st0"
         d="M 78.7,61.1 V 47.5 L 72,56.2 65.3,47.4 V 61 H 62.7 V 40.1 L 72,52.3 81.3,40.1 V 61 h -2.6 z"
         id="path4"
         inkscape:connector-curvature="0"
         style="fill:#b29a5c" /><path
         class="st0"
         d="m 94.8,46 -7.1,15.1 h -2.8 l 9.9,-20.9 9.9,20.9 h -2.8 z"
         id="path6"
         inkscape:connector-curvature="0"
         style="fill:#b29a5c" /><path
         class="st0"
         d="m 118.1,61.5 c -6.3,0 -11,-4.5 -11,-10.6 0,-6.1 4.6,-10.6 11,-10.6 3.1,0 5.7,1 7.6,2.8 L 124,45 c -1.5,-1.4 -3.5,-2.2 -6,-2.2 -4.5,0 -7.7,2.7 -8.2,6.9 h 16 v 8.8 c -1.9,2 -4.6,3 -7.7,3 z m 5.2,-4.2 v -5.1 h -13.5 c 0.6,4.1 3.8,6.7 8.2,6.7 2.1,0.1 3.9,-0.5 5.3,-1.6 z"
         id="path8"
         inkscape:connector-curvature="0"
         style="fill:#b29a5c" /><path
         class="st0"
         d="m 131.5,61.1 v -2.5 h 3.9 v -4 c -1.5,-0.5 -2.6,-1.8 -2.6,-3.6 0,-1.8 1.1,-3.1 2.6,-3.6 v -4 h -3.9 v -2.5 h 10.3 v 2.5 H 138 v 4 c 1.5,0.5 2.6,1.8 2.6,3.6 0,1.8 -1.1,3.1 -2.6,3.6 v 4 h 3.9 v 2.5 z m 3.7,-10.2 c 0,0.9 0.6,1.4 1.4,1.4 0.9,0 1.4,-0.6 1.4,-1.4 0,-0.8 -0.6,-1.4 -1.4,-1.4 -0.8,0 -1.4,0.6 -1.4,1.4 z"
         id="path10"
         inkscape:connector-curvature="0"
         style="fill:#b29a5c" /><path
         class="st0"
         d="M 47.1,61.1 V 58.6 H 51 V 43.3 h -3.9 v -2.5 h 10.3 v 2.5 h -3.9 v 15.3 h 3.9 v 2.5 H 47.1 Z"
         id="path12"
         inkscape:connector-curvature="0"
         style="fill:#b29a5c" /><path
         class="st0"
         d="m 216.9,61.1 v -2.5 h 3.9 V 43.3 h -3.9 v -2.5 h 10.3 v 2.5 h -3.9 v 15.3 h 3.9 v 2.5 z"
         id="path14"
         inkscape:connector-curvature="0"
         style="fill:#b29a5c" /><path
         class="st0"
         d="M 153.2,51.3 V 61 h -2.6 V 40.2 l 14,10.2 v -9.7 h 2.6 v 20.9 z m 11.5,2.2 -11.5,-8.3 v 3.1 l 11.5,8.3 z"
         id="path16"
         inkscape:connector-curvature="0"
         style="fill:#b29a5c" /><path
         class="st0"
         d="m 183.4,46 -7.1,15.1 h -2.8 l 9.9,-20.9 9.9,20.9 h -2.8 z"
         id="path18"
         inkscape:connector-curvature="0"
         style="fill:#b29a5c" /><path
         class="st0"
         d="m 204.2,48.8 v 12.3 h -2.6 V 48.8 h -6.4 v -2.5 h 6.4 v -3.1 h -6.4 v -2.5 h 15.4 v 2.5 h -6.4 v 3.1 h 6.4 v 2.5 z"
         id="path20"
         inkscape:connector-curvature="0"
         style="fill:#b29a5c" /></g><g
       id="g64"><g
         id="g42"><g
           id="g36"><polygon
             class="st0"
             points="240.7,28.7 251.1,28.7 245.9,33.9 "
             id="polygon24"
             style="fill:#b29a5c" /><polygon
             class="st0"
             points="242.1,33 242.1,33.8 242.7,34.4 243.5,34.4 243.9,34 242.5,32.6 "
             id="polygon26"
             style="fill:#b29a5c" /><polygon
             class="st0"
             points="249.5,35.3 248,35.3 247.3,34.6 245.9,36 244.5,34.6 243.8,35.3 242.3,35.3 241.2,34.2 241.2,32.6 241.9,32 238.6,28.8 237.1,28.8 237.1,34.4 246.4,43.6 254.8,35.2 254.8,28.7 253.2,28.7 249.9,32 250.6,32.6 250.6,34.2 "
             id="polygon28"
             style="fill:#b29a5c" /><polygon
             class="st0"
             points="249.3,32.6 247.9,34 248.3,34.4 249.1,34.4 249.7,33.8 249.7,33 "
             id="polygon30"
             style="fill:#b29a5c" /><polygon
             class="st0"
             points="243.3,50.8 243.2,66.2 254.7,54.6 254.8,37.8 246.4,46.3 237.1,37 237.1,45 "
             id="polygon32"
             style="fill:#b29a5c" /><polygon
             class="st0"
             points="237,72.5 239.3,70.2 239.3,55.1 240.2,56 240.2,69.2 241.5,68 241.5,52.1 237,48 "
             id="polygon34"
             style="fill:#b29a5c" /></g><polygon
           class="st0"
           points="257.8,28.7 254.8,31.7 254.8,28.7 "
           id="polygon38"
           style="fill:#b29a5c" /><polygon
           class="st0"
           points="234,28.8 237.1,31.7 237.1,28.8 "
           id="polygon40"
           style="fill:#b29a5c" /></g><g
         id="g62"><g
           id="g56"><polygon
             class="st0"
             points="28.4,33.9 23.3,28.7 33.6,28.7 "
             id="polygon44"
             style="fill:#b29a5c" /><polygon
             class="st0"
             points="32.2,33 32.2,33.8 31.7,34.4 30.9,34.4 30.5,34 31.8,32.6 "
             id="polygon46"
             style="fill:#b29a5c" /><polygon
             class="st0"
             points="24.9,35.3 26.4,35.3 27,34.6 28.4,36 29.8,34.6 30.5,35.3 32,35.3 33.1,34.2 33.1,32.6 32.5,32 35.7,28.8 37.3,28.8 37.3,34.4 28,43.6 19.6,35.2 19.6,28.7 21.1,28.7 24.4,32 23.8,32.6 23.8,34.2 "
             id="polygon48"
             style="fill:#b29a5c" /><polygon
             class="st0"
             points="24.7,33 24.7,33.8 25.2,34.4 26,34.4 26.4,34 25,32.6 "
             id="polygon50"
             style="fill:#b29a5c" /><polygon
             class="st0"
             points="19.6,54.6 31.1,66.2 31,50.8 37.3,45 37.3,37 28,46.3 19.6,37.8 "
             id="polygon52"
             style="fill:#b29a5c" /><polygon
             class="st0"
             points="32.8,68 34.1,69.2 34.1,56 35,55.1 35,70.2 37.3,72.5 37.3,48 32.8,52.1 "
             id="polygon54"
             style="fill:#b29a5c" /></g><polygon
           class="st0"
           points="16.5,28.7 19.6,31.7 19.6,28.7 "
           id="polygon58"
           style="fill:#b29a5c" /><polygon
           class="st0"
           points="40.3,28.8 37.3,31.7 37.3,28.8 "
           id="polygon60"
           style="fill:#b29a5c" /></g></g><g
       id="g100"><rect
         x="49"
         y="31"
         class="st0"
         width="176.39999"
         height="1.3"
         id="rect66"
         style="fill:#b29a5c" /><rect
         x="46.5"
         y="27.6"
         class="st0"
         width="181.3"
         height="1.3"
         id="rect68"
         style="fill:#b29a5c" /><polygon
         class="st0"
         points="152.3,68.4 225.4,68.4 225.4,69.7 153.5,69.7 137.2,86.6 120.8,69.7 49,69.7 49,68.4 122,68.4 137.2,84 "
         id="polygon70"
         style="fill:#b29a5c" /><rect
         x="44.099998"
         y="72.099998"
         class="st0"
         width="186.2"
         height="1.3"
         id="rect72"
         style="fill:#b29a5c" /><polygon
         class="st0"
         points="194,31 80.3,31 64.8,16.1 209.6,16.1 "
         id="polygon74"
         style="fill:#b29a5c" /><g
         id="g96"><path
           class="st1"
           d="m 92.4,27.1 v -3.5 c 0,-0.8 0.4,-1.2 1.2,-1.2 h 2.1 c 0.8,0 1.2,0.4 1.2,1.2 v 3.5 c 0,0.8 -0.4,1.2 -1.2,1.2 h -2.1 c -0.8,-0.1 -1.2,-0.4 -1.2,-1.2 z m 3.1,0 c 0.1,0 0.2,0 0.2,-0.2 v -3.3 c 0,-0.1 0,-0.2 -0.2,-0.2 h -1.7 c -0.1,0 -0.2,0 -0.2,0.2 V 27 c 0,0.1 0,0.2 0.2,0.2 h 1.7 z"
           id="path76"
           inkscape:connector-curvature="0"
           style="fill:#ffffff" /><path
           class="st1"
           d="M 105.3,28.2 H 104 l -1,-2 h -1 v 2 h -1 v -5.8 h 3 c 0.8,0 1.2,0.4 1.2,1.2 V 25 c 0,0.7 -0.3,1 -0.8,1.1 z m -1.5,-3.1 c 0.1,0 0.2,0 0.2,-0.2 v -1.3 c 0,-0.1 0,-0.2 -0.2,-0.2 h -1.7 V 25 h 1.7 z"
           id="path78"
           inkscape:connector-curvature="0"
           style="fill:#ffffff" /><path
           class="st1"
           d="m 109.3,22.5 h 3.2 c 0.8,0 1.2,0.4 1.2,1.2 v 3.5 c 0,0.8 -0.4,1.2 -1.2,1.2 h -3.2 z m 3,4.6 c 0.1,0 0.2,0 0.2,-0.2 v -3.3 c 0,-0.1 0,-0.2 -0.2,-0.2 h -1.8 V 27 h 1.8 z"
           id="path80"
           inkscape:connector-curvature="0"
           style="fill:#ffffff" /><path
           class="st1"
           d="m 117.8,22.5 h 3.9 v 1.1 H 119 v 1.2 h 2.2 v 1.1 H 119 v 1.3 h 2.7 v 1.1 h -3.9 z"
           id="path82"
           inkscape:connector-curvature="0"
           style="fill:#ffffff" /><path
           class="st1"
           d="m 130,28.2 h -1.3 l -1,-2 h -1 v 2 h -1.2 v -5.8 h 3 c 0.8,0 1.2,0.4 1.2,1.2 V 25 c 0,0.7 -0.3,1 -0.8,1.1 z m -1.5,-3.1 c 0.1,0 0.2,0 0.2,-0.2 v -1.3 c 0,-0.1 0,-0.2 -0.2,-0.2 h -1.7 V 25 h 1.7 z"
           id="path84"
           inkscape:connector-curvature="0"
           style="fill:#ffffff" /><path
           class="st1"
           d="m 138.8,27.1 v -3.5 c 0,-0.8 0.4,-1.2 1.2,-1.2 h 2.1 c 0.8,0 1.2,0.4 1.2,1.2 v 3.5 c 0,0.8 -0.4,1.2 -1.2,1.2 H 140 c -0.8,-0.1 -1.2,-0.4 -1.2,-1.2 z m 3.1,0 c 0.1,0 0.2,0 0.2,-0.2 v -3.3 c 0,-0.1 0,-0.2 -0.2,-0.2 h -1.7 c -0.1,0 -0.2,0 -0.2,0.2 V 27 c 0,0.1 0,0.2 0.2,0.2 h 1.7 z"
           id="path86"
           inkscape:connector-curvature="0"
           style="fill:#ffffff" /><path
           class="st1"
           d="m 147.4,22.5 h 3.9 v 1.1 h -2.7 v 1.2 h 2.2 v 1.1 h -2.2 v 2.4 h -1.2 z"
           id="path88"
           inkscape:connector-curvature="0"
           style="fill:#ffffff" /><path
           class="st1"
           d="m 161.2,23.5 h -1.6 v -1.1 h 4.3 v 1.1 h -1.6 v 4.7 h -1.2 v -4.7 z"
           id="path90"
           inkscape:connector-curvature="0"
           style="fill:#ffffff" /><path
           class="st1"
           d="m 167.8,22.5 h 1.2 v 2.3 h 2 v -2.3 h 1.2 v 5.8 H 171 v -2.4 h -2 v 2.4 h -1.2 z"
           id="path92"
           inkscape:connector-curvature="0"
           style="fill:#ffffff" /><path
           class="st1"
           d="m 176.5,22.5 h 3.9 v 1.1 h -2.7 v 1.2 h 2.2 v 1.1 h -2.2 v 1.3 h 2.7 v 1.1 h -3.9 z"
           id="path94"
           inkscape:connector-curvature="0"
           style="fill:#ffffff" /></g><polygon
         class="st0"
         points="132.7,75.9 141.7,75.9 137.2,80.5 "
         id="polygon98"
         style="fill:#b29a5c" /></g></g></g></svg>