<?xml version="1.0" encoding="UTF-8" standalone="no"?>
<!-- Generator: Adobe Illustrator 24.0.3, SVG Export Plug-In . SVG Version: 6.00 Build 0)  -->

<svg
   xmlns:dc="http://purl.org/dc/elements/1.1/"
   xmlns:cc="http://creativecommons.org/ns#"
   xmlns:rdf="http://www.w3.org/1999/02/22-rdf-syntax-ns#"
   xmlns:svg="http://www.w3.org/2000/svg"
   xmlns="http://www.w3.org/2000/svg"
   xmlns:sodipodi="http://sodipodi.sourceforge.net/DTD/sodipodi-0.dtd"
   xmlns:inkscape="http://www.inkscape.org/namespaces/inkscape"
   version="1.1"
   id="Layer_1"
   x="0px"
   y="0px"
   viewBox="0 0 410.60001 698.70001"
   xml:space="preserve"
   sodipodi:docname="STD_Splash.svg"
   width="410.60001"
   height="698.70001"
   inkscape:version="0.92.4 (5da689c313, 2019-01-14)"><metadata
   id="metadata317"><rdf:RDF><cc:Work
       rdf:about=""><dc:format>image/svg+xml</dc:format><dc:type
         rdf:resource="http://purl.org/dc/dcmitype/StillImage" /></cc:Work></rdf:RDF></metadata><defs
   id="defs315" /><sodipodi:namedview
   pagecolor="#ffffff"
   bordercolor="#666666"
   borderopacity="1"
   objecttolerance="10"
   gridtolerance="10"
   guidetolerance="10"
   inkscape:pageopacity="0"
   inkscape:pageshadow="2"
   inkscape:window-width="1920"
   inkscape:window-height="1001"
   id="namedview313"
   showgrid="false"
   inkscape:zoom="4.7676768"
   inkscape:cx="-24.274554"
   inkscape:cy="667.27877"
   inkscape:window-x="-9"
   inkscape:window-y="-9"
   inkscape:window-maximized="1"
   inkscape:current-layer="g308" />
<style
   type="text/css"
   id="style2">
	.st0{fill:#FFFFFF;stroke:#FFFFFF;stroke-width:9;stroke-miterlimit:10;}
	.st1{fill:#B29A5C;}
	.st2{fill:none;stroke:#B29A5C;stroke-width:2;stroke-miterlimit:10;}
	.st3{fill:none;stroke:#B29A5C;stroke-width:5;stroke-miterlimit:10;}
	.st4{fill:#FFFFFF;}
	.st5{fill:#B29A5C;stroke:#B29A5C;stroke-width:0.25;stroke-miterlimit:10;}
	.st6{fill:none;stroke:#B29A5C;stroke-width:3;stroke-miterlimit:10;}
	.st7{fill:none;stroke:#FFFFFF;stroke-width:1.602;stroke-miterlimit:10;}
	.st8{fill:none;stroke:#FFFFFF;stroke-width:1.81;stroke-miterlimit:10;}
</style>
<g
   id="g310"
   transform="translate(-100.7,-46.6)">
	<path
   class="st0"
   d="m 506.8,414 v -25.6 h -0.1 V 99.3 c -5.9,0 -11.4,-1.7 -16,-4.7 v -9.3 h -9.3 c -2.9,-4.6 -4.7,-10.1 -4.7,-16 H 431.4 V 57.7 h -59.8 l 6.8,-6.6 H 233.5 l 6.8,6.6 h -59.8 v 11.6 h -45.3 c 0,5.9 -1.7,11.4 -4.7,16 h -9.3 v 9.3 c -4.6,2.9 -10.1,4.7 -16,4.7 v 289.1 25.6 301.2 25.6 h 25.6 156.4 25.6 168.3 25.5 0.1 v -25.6 h -0.1 z"
   id="path4"
   inkscape:connector-curvature="0"
   style="fill:#ffffff;stroke:#ffffff;stroke-width:9;stroke-miterlimit:10" />
	<g
   id="g308">
		
		
		
		
		
		<rect
   x="149.8"
   y="113.9"
   class="st2"
   width="8.3999996"
   height="8.3999996"
   id="rect16"
   style="fill:none;stroke:#b29a5c;stroke-width:2;stroke-miterlimit:10" />
		<rect
   x="453.70001"
   y="113.9"
   class="st2"
   width="8.3999996"
   height="8.3999996"
   id="rect18"
   style="fill:none;stroke:#b29a5c;stroke-width:2;stroke-miterlimit:10" />
		<g
   id="g22">
			<path
   class="st1"
   d="m 470.3,76.3 c 2.8,14.8 14.5,26.5 29.3,29.3 V 733.8 H 112.2 V 105.7 c 14.8,-2.8 26.5,-14.5 29.3,-29.3 h 328.8 m 6.4,-7.1 H 135.2 c 0,16.5 -13.5,30 -30,30 V 740.8 H 506.6 V 99.3 c -16.4,0 -29.9,-13.5 -29.9,-30 z"
   id="path20"
   inkscape:connector-curvature="0"
   style="fill:#b29a5c" />
		</g>
		
			<rect
   x="-13.8"
   y="220.39999"
   transform="rotate(90,305.95065,405.09265)"
   class="st3"
   width="639.5"
   height="369.39999"
   id="rect24"
   style="fill:none;stroke:#b29a5c;stroke-width:5;stroke-miterlimit:10" />
		
		
		<polygon
   class="st1"
   points="469.4,91.6 469.4,106.3 484.2,106.3 "
   id="polygon76"
   style="fill:#b29a5c" />
		<polygon
   class="st1"
   points="142.2,91.6 142.2,106.3 127.4,106.3 "
   id="polygon78"
   style="fill:#b29a5c" />
		
		<polygon
   class="st2"
   points="149.8,113.9 149.8,94.9 462.1,94.9 462.1,113.9 481.2,113.9 481.2,707.1 481.1,716.1 130.7,716.1 130.7,113.9 "
   id="polygon118"
   style="fill:none;stroke:#b29a5c;stroke-width:2;stroke-miterlimit:10" />
		
		
		
		
		
		
		
		
		
		
		
		
		
		
		
		
		
	</g>
</g>
</svg>